<?xml version="1.0" standalone="no"?>
<!DOCTYPE svg PUBLIC "-//W3C//DTD SVG 20010904//EN"
 "http://www.w3.org/TR/2001/REC-SVG-20010904/DTD/svg10.dtd">
<svg version="1.0" xmlns="http://www.w3.org/2000/svg"
 width="512.000000pt" height="512.000000pt" viewBox="0 0 512.000000 512.000000"
 preserveAspectRatio="xMidYMid meet">
<metadata>
Created by potrace 1.14, written by Peter Selinger 2001-2017
</metadata>
<g transform="translate(0.000000,512.000000) scale(0.100000,-0.100000)"
fill="#000000" stroke="none">
<path d="M2425 5102 c-63 -39 -181 -187 -220 -277 -57 -130 24 -316 162 -372
l43 -18 0 -72 0 -73 -62 0 c-67 0 -130 -23 -160 -56 -46 -52 -48 -72 -48 -483
l0 -390 -67 32 c-61 28 -78 32 -161 33 l-92 1 -51 50 c-87 86 -200 133 -322
133 -48 0 -62 -4 -82 -25 -54 -53 -20 -125 58 -125 62 0 153 -26 200 -58 179
-120 178 -393 -2 -513 -43 -28 -48 -29 -171 -29 -122 0 -127 1 -173 30 -131
83 -175 265 -98 406 17 32 31 70 31 86 0 60 -71 88 -122 49 -28 -23 -72 -108
-89 -174 -6 -27 -10 -87 -7 -142 4 -87 7 -101 45 -175 l41 -80 -142 0 c-77 0
-170 -5 -206 -10 -135 -22 -244 -104 -303 -228 l-32 -67 -3 -434 c-3 -473 -2
-483 54 -556 15 -20 47 -47 71 -61 l43 -26 0 -553 c0 -372 4 -571 11 -607 26
-123 101 -218 217 -275 l76 -38 1625 0 1626 0 67 32 c82 38 145 96 182 164 55
101 56 105 56 747 l0 593 -25 24 c-30 30 -64 32 -99 4 -25 -19 -26 -25 -26
-110 l0 -89 -633 0 -634 0 -21 -23 c-29 -31 -28 -72 3 -102 l24 -25 631 0 630
0 0 -165 0 -165 -1780 0 -1780 0 0 165 0 165 113 0 c106 0 115 2 135 23 28 30
29 80 2 107 -18 18 -33 20 -135 20 l-115 0 0 48 c0 48 1 49 39 60 21 7 58 30
83 52 63 55 88 119 95 238 7 113 23 140 89 149 36 5 46 1 75 -25 l34 -30 5
-274 c6 -302 7 -312 74 -386 95 -104 266 -113 373 -18 68 60 93 121 93 229 0
101 -15 127 -74 127 -53 0 -76 -36 -76 -117 0 -38 -6 -76 -15 -93 -29 -56
-109 -77 -166 -43 -55 33 -59 56 -59 335 0 223 -3 258 -19 293 -75 165 -285
209 -409 85 -56 -55 -74 -104 -79 -205 -6 -132 -37 -180 -117 -178 -45 1 -73
18 -96 56 -18 29 -20 52 -20 225 l0 192 36 0 c130 0 140 143 10 157 l-48 6 4
136 c3 116 7 142 25 177 28 53 91 107 142 122 28 9 492 12 1798 12 l1760 0 34
-23 c58 -38 69 -74 69 -220 0 -145 -11 -182 -64 -220 -30 -21 -40 -22 -346
-27 -344 -5 -346 -6 -413 -69 -56 -51 -70 -94 -76 -232 -5 -105 -9 -131 -25
-148 -28 -31 -82 -43 -121 -27 -48 20 -65 51 -65 117 0 121 -27 203 -88 264
-51 51 -106 77 -178 83 -89 7 -155 -18 -219 -82 -80 -80 -85 -103 -85 -398 0
-266 -4 -288 -52 -322 -12 -9 -42 -16 -66 -16 -37 0 -50 6 -78 34 l-34 34 0
292 c0 190 -4 307 -12 338 -16 64 -86 134 -150 150 -73 19 -560 16 -625 -3
-61 -18 -126 -83 -142 -141 -6 -22 -11 -103 -11 -182 0 -138 1 -144 25 -167
29 -30 64 -32 98 -5 25 20 26 23 29 169 2 107 7 153 17 164 12 15 45 17 295
17 159 0 287 -4 296 -10 13 -8 16 -59 20 -322 5 -302 6 -315 29 -366 48 -106
162 -172 275 -158 100 13 191 88 224 185 8 22 12 120 12 280 0 275 4 295 69
338 39 27 68 29 116 9 54 -23 69 -56 76 -173 6 -88 11 -110 36 -155 86 -154
288 -181 413 -56 55 55 72 107 78 238 2 63 9 123 13 132 17 31 78 38 357 38
l272 0 0 -130 c0 -117 2 -132 20 -150 30 -30 83 -27 109 6 19 25 21 40 21 186
l0 160 34 40 c55 64 66 110 66 283 0 179 -11 222 -74 292 l-43 47 48 38 c70
55 118 124 204 297 67 134 76 160 72 194 -3 21 -14 48 -24 59 -20 22 -204 118
-265 137 l-38 13 0 75 c0 89 -18 133 -64 158 -28 15 -52 17 -192 12 -139 -4
-169 -8 -236 -32 -83 -29 -171 -81 -237 -140 l-41 -37 -47 17 c-159 55 -336
16 -464 -102 l-60 -56 -92 -2 c-51 0 -100 -5 -109 -9 -17 -8 -18 13 -18 358 0
387 -2 408 -48 460 -30 33 -93 56 -159 56 l-63 0 0 73 0 72 45 18 c137 57 217
241 160 372 -40 92 -167 250 -226 281 -38 19 -88 18 -124 -4z m123 -204 c27
-35 59 -79 71 -98 59 -97 -13 -220 -129 -220 -116 0 -187 121 -128 219 31 51
118 161 128 161 5 0 31 -28 58 -62z m132 -773 c7 -9 11 -17 9 -19 -7 -6 -323
-211 -362 -235 l-38 -23 3 139 3 138 70 6 c39 3 122 6 186 7 94 2 119 -1 129
-13z m10 -319 l0 -114 -185 -121 c-102 -67 -192 -124 -200 -127 -13 -5 -15 11
-15 104 0 75 4 113 13 120 18 15 378 252 383 252 2 0 4 -51 4 -114z m1560
-318 c0 -237 -39 -356 -154 -472 -64 -66 -171 -127 -253 -145 l-42 -9 26 41
c102 162 90 373 -30 529 l-36 47 35 30 c47 41 141 88 212 105 31 8 99 15 150
15 l92 1 0 -142z m-1560 -85 c-1 -96 -1 -99 -33 -135 -26 -29 -345 -248 -362
-248 -3 0 -5 51 -5 114 l0 114 193 126 c105 69 195 126 200 126 4 0 7 -44 7
-97z m871 25 c63 -26 141 -111 163 -174 48 -143 -7 -297 -134 -373 -31 -18
-51 -21 -161 -21 -123 0 -127 1 -165 29 -97 71 -138 147 -138 256 0 147 88
261 233 302 58 16 139 9 202 -19z m952 -109 c26 -12 47 -27 47 -31 0 -5 -27
-63 -61 -130 -87 -174 -179 -263 -294 -284 l-40 -7 48 50 c98 101 161 230 180
368 l11 84 31 -13 c16 -8 51 -24 78 -37z m-1918 -336 c3 -21 15 -57 25 -80
l19 -43 -152 0 -152 0 120 79 c66 44 123 80 126 80 4 1 10 -16 14 -36z m1673
-2445 l-3 -203 -30 -54 c-32 -59 -90 -104 -156 -121 -24 -7 -598 -9 -1611 -8
l-1573 3 -40 21 c-51 28 -91 68 -118 119 -20 36 -22 59 -25 243 l-4 202 1782
0 1782 0 -4 -202z"/>
<path d="M3234 2566 c-52 -23 -62 -91 -18 -125 46 -36 151 -20 168 24 29 76
-66 139 -150 101z"/>
<path d="M1108 2514 c-50 -27 -48 -106 2 -131 34 -17 105 -16 140 2 32 17 46
51 36 90 -12 49 -117 73 -178 39z"/>
<path d="M1885 2518 c-61 -36 -60 -104 2 -136 38 -20 136 -15 167 9 34 26 37
86 5 115 -25 23 -143 31 -174 12z"/>
<path d="M3828 2515 c-50 -28 -48 -107 2 -132 14 -7 48 -13 77 -13 40 0 58 5
79 23 34 30 37 79 6 109 -28 28 -124 36 -164 13z"/>
<path d="M2605 2385 c-55 -54 -16 -125 67 -125 62 0 78 7 93 44 26 60 -12 105
-88 106 -38 0 -53 -5 -72 -25z"/>
<path d="M1842 1350 c-30 -28 -29 -80 1 -108 22 -20 33 -22 166 -22 137 0 143
1 166 25 30 30 32 64 4 99 -20 26 -21 26 -168 26 -134 0 -149 -2 -169 -20z"/>
</g>
</svg>
